<svg
  width="223"
  height="44"
  viewBox="0 0 223 44"
  fill="none"
  xmlns="http://www.w3.org/2000/svg"
>
  <path
    d="M75.498 14.2422H80.1258V26.55H88.2152V30.4948L75.498 30.4948V14.2422Z"
    fill="white"
  />
  <path d="M91.7412 14.2422H96.4103V30.4948H91.7412V14.2422Z" fill="white" />
  <path
    d="M99.9971 14.2422H105.176L108.968 24.5173L112.765 14.2422L117.847 14.2422L111.071 30.611L106.773 30.611L99.9971 14.2422Z"
    fill="white"
  />
  <path
    d="M121.378 14.2422L134.811 14.2422V18.0753L125.96 18.0753V20.5502H133.976V24.1242H125.96V26.7019H134.931V30.5305L121.378 30.5305V14.2422Z"
    fill="white"
  />
  <path
    d="M138.65 22.4176V22.3684C138.65 17.6329 142.396 13.916 147.456 13.916C150.867 13.916 153.061 15.3099 154.54 17.3068L151.046 19.9292C150.095 18.7721 148.998 18.0261 147.373 18.0261C145.036 18.0261 143.388 19.956 143.388 22.3238V22.3684C143.388 24.8077 145.036 26.7108 147.373 26.7108C149.118 26.7108 150.128 25.9201 151.142 24.7362L154.627 27.1531C153.066 29.2662 150.945 30.8253 147.244 30.8253C146.108 30.8405 144.979 30.6331 143.926 30.2154C142.874 29.7976 141.918 29.1782 141.116 28.3938C140.314 27.6094 139.683 26.6761 139.259 25.6495C138.835 24.6228 138.628 23.5237 138.65 22.4176Z"
    fill="white"
  />
  <path
    d="M161.948 24.4146L155.604 14.2422H160.874L164.313 20.1616L167.77 14.2422L172.948 14.2422L166.604 24.3431V30.4948H161.948V24.4146Z"
    fill="white"
  />
  <path
    d="M173.881 22.4176V22.3684C173.881 17.6329 177.628 13.916 182.687 13.916C186.098 13.916 188.293 15.3099 189.776 17.3068L186.291 19.9292C185.336 18.7721 184.239 18.0261 182.641 18.0261C180.3 18.0261 178.656 19.956 178.656 22.3238V22.3684C178.656 24.8077 180.3 26.7108 182.641 26.7108C184.381 26.7108 185.396 25.9201 186.41 24.7362L189.895 27.1531C188.32 29.2662 186.195 30.8253 182.494 30.8253C181.356 30.8429 180.225 30.6373 179.171 30.2206C178.116 29.804 177.158 29.1849 176.354 28.4003C175.55 27.6157 174.917 26.6816 174.492 25.6537C174.067 24.6258 173.86 23.5253 173.881 22.4176Z"
    fill="white"
  />
  <path
    d="M193.742 14.2422H198.37V26.55H206.459V30.4948L193.742 30.4948V14.2422Z"
    fill="white"
  />
  <path
    d="M209.446 14.2422L222.88 14.2422V18.0753L214.028 18.0753V20.5502H222.044V24.1242H214.028V26.7019H222.999V30.5305L209.446 30.5305V14.2422Z"
    fill="white"
  />
  <path
    d="M58.5118 28.2747C57.4573 29.302 56.1585 30.06 54.7307 30.4815C53.3029 30.903 51.7902 30.975 50.327 30.6909C48.8637 30.4069 47.4952 29.7758 46.3428 28.8535C45.1905 27.9312 44.2899 26.7462 43.7212 25.4039C43.1525 24.0616 42.9332 22.6035 43.0827 21.1588C43.2322 19.7142 43.7459 18.3279 44.5783 17.1229C45.4107 15.9179 46.5359 14.9315 47.8541 14.2514C49.1724 13.5712 50.6428 13.2182 52.1348 13.2239C53.3174 13.2183 54.4894 13.44 55.5837 13.8763C56.678 14.3125 57.673 14.9546 58.5118 15.7658L66.3165 8.17115C63.9792 5.90029 61.1025 4.22535 57.9411 3.29467C54.7797 2.36399 51.4313 2.20629 48.1923 2.83554C44.9534 3.46479 41.9238 4.86157 39.3721 6.90217C36.8203 8.94278 34.8251 11.5642 33.5631 14.5343C32.3011 17.5045 31.8113 20.7316 32.137 23.9299C32.4627 27.1282 33.5939 30.199 35.4305 32.8703C37.267 35.5417 39.7522 37.731 42.6659 39.2446C45.5796 40.7581 48.8319 41.5491 52.1348 41.5475C57.443 41.5423 62.5359 39.5042 66.3119 35.8739L58.5118 28.2747Z"
    fill="white"
  />
  <path
    d="M22.6062 44L0 21.9978L23.0653 0L30.8609 7.58128L16.041 21.9978L30.8609 36.4187L22.6062 44Z"
    fill="white"
  />
</svg>
